<svg xmlns="http://www.w3.org/2000/svg" viewBox="0 0 800 800" width="800" height="800" role="img" aria-label="양가 혼주, 함께 할까요, 따로 할까요?">
<defs><linearGradient id="b" x1="0" y1="0" x2="1" y2="1">
<stop offset="0" stop-color="#FBF6F0"/><stop offset="1" stop-color="#F0DFD2"/></linearGradient></defs>
<rect width="800" height="800" fill="url(#b)"/>
<circle cx="605" cy="205" r="150" fill="#ffffff" opacity="0.5"/>
<g transform="translate(605,205) scale(1.0)" fill="none" stroke="#A63D5A" stroke-width="3" stroke-linecap="round" stroke-linejoin="round" opacity="0.85"><rect x="-46" y="-58" width="92" height="116" rx="10"/><path d="M-46 -34 H46"/><path d="M-28 -8 l10 10 l22 -24"/><path d="M12 -2 H32"/><path d="M-28 26 l10 10 l22 -24"/><path d="M12 32 H32"/><circle cx="-22" cy="-58" r="6"/><circle cx="22" cy="-58" r="6"/></g>
<text x="70" y="118" font-family="'Noto Sans KR','Apple SD Gothic Neo','Malgun Gothic',sans-serif" font-size="20" letter-spacing="6" fill="#A63D5A" font-weight="700">PART 1</text>
<text x="70" y="330" font-family="'Noto Sans KR','Apple SD Gothic Neo','Malgun Gothic',sans-serif" font-size="104" font-weight="900" fill="#A63D5A" opacity="0.18">15</text>
<text x="70" y="454" font-family="'Noto Sans KR','Apple SD Gothic Neo','Malgun Gothic',sans-serif" font-size="42" font-weight="700" fill="#3B2B2F"><tspan x="70" dy="0">양가 혼주, 함께 할까요,</tspan><tspan x="70" dy="52">따로 할까요?</tspan></text>
<line x1="70" y1="700" x2="200" y2="700" stroke="#A63D5A" stroke-width="3"/>
<text x="70" y="742" font-family="'Noto Sans KR','Apple SD Gothic Neo','Malgun Gothic',sans-serif" font-size="21" fill="#3B2B2F" opacity="0.65">메이크업포엘</text>
</svg>